<svg xmlns="http://www.w3.org/2000/svg" width="860" height="380" viewBox="0 0 860 380">
  <defs>
    <linearGradient id="sky" x1="0" y1="0" x2="1" y2="1">
      <stop offset="0" stop-color="#05070d"/>
      <stop offset="0.45" stop-color="#0a1024"/>
      <stop offset="1" stop-color="#15070a"/>
    </linearGradient>
    <linearGradient id="name" x1="0" y1="0" x2="1" y2="0">
      <stop offset="0" stop-color="#ff3347"/>
      <stop offset="0.48" stop-color="#f5f7ff"/>
      <stop offset="1" stop-color="#2d7dff"/>
    </linearGradient>
    <filter id="glow" x="-30%" y="-30%" width="160%" height="160%">
      <feGaussianBlur stdDeviation="3" result="blur"/>
      <feMerge>
        <feMergeNode in="blur"/>
        <feMergeNode in="SourceGraphic"/>
      </feMerge>
    </filter>
  </defs>

  <rect width="860" height="380" rx="14" fill="url(#sky)"/>
  <rect x="6" y="6" width="848" height="368" rx="12" fill="none" stroke="#e62429" stroke-width="2" opacity="0.75"/>
  <rect x="12" y="12" width="836" height="356" rx="9" fill="none" stroke="#1e6bff" stroke-width="1.2" opacity="0.55"/>

  <!-- Web lines -->
  <g fill="none" stroke-linecap="round" opacity="0.9">
    <g stroke="#1e6bff" stroke-width="1.1" opacity="0.45">
      <path d="M0 54 C120 110 220 142 365 152"/>
      <path d="M0 118 C140 150 245 176 390 176"/>
      <path d="M0 192 C128 190 250 202 392 210"/>
      <path d="M860 46 C735 96 632 130 505 150"/>
      <path d="M860 112 C730 145 628 170 485 178"/>
      <path d="M860 198 C720 192 607 203 468 212"/>
    </g>
    <g stroke="#f5f7ff" stroke-width="0.9" opacity="0.25">
      <path d="M64 0 L404 238"/>
      <path d="M176 0 L414 242"/>
      <path d="M316 0 L424 246"/>
      <path d="M796 0 L456 238"/>
      <path d="M684 0 L446 242"/>
      <path d="M544 0 L436 246"/>
    </g>
    <g stroke="#e62429" stroke-width="1" opacity="0.5">
      <path d="M72 350 C205 288 310 260 430 252 C550 260 655 288 788 350"/>
      <path d="M122 312 C238 266 331 246 430 240 C529 246 622 266 738 312"/>
      <path d="M188 280 C282 250 354 236 430 232 C506 236 578 250 672 280"/>
    </g>
  </g>

  <!-- City silhouette -->
  <path d="M0 380 L0 306 L22 306 L22 286 L42 286 L42 262 L56 262 L56 304 L82 304 L82 238 L98 238 L98 220 L116 220 L116 304 L144 304 L144 272 L160 272 L160 246 L184 246 L184 304 L210 304 L210 216 L232 216 L232 196 L252 216 L252 304 L286 304 L286 254 L310 254 L310 232 L334 232 L334 304 L370 304 L370 270 L402 270 L402 246 L430 246 L458 246 L458 270 L490 270 L490 304 L526 304 L526 232 L550 232 L550 254 L574 254 L574 304 L608 304 L608 216 L628 196 L650 216 L650 304 L676 304 L676 246 L700 246 L700 272 L716 272 L716 304 L744 304 L744 220 L762 220 L762 238 L778 238 L778 304 L804 304 L804 262 L818 262 L818 286 L838 286 L838 306 L860 306 L860 380 Z" fill="#03050a"/>
  <g fill="#2d7dff" opacity="0.45">
    <rect x="96" y="246" width="5" height="8"/>
    <rect x="110" y="246" width="5" height="8"/>
    <rect x="222" y="232" width="5" height="8"/>
    <rect x="242" y="232" width="5" height="8"/>
    <rect x="532" y="248" width="5" height="8"/>
    <rect x="546" y="248" width="5" height="8"/>
    <rect x="616" y="232" width="5" height="8"/>
    <rect x="636" y="232" width="5" height="8"/>
    <rect x="750" y="248" width="5" height="8"/>
    <rect x="764" y="248" width="5" height="8"/>
  </g>

  <!-- Center mark -->
  <g filter="url(#glow)">
    <circle cx="430" cy="114" r="42" fill="#e62429" opacity="0.12"/>
    <path d="M430 74 C416 91 402 108 402 132 C402 157 418 171 430 180 C442 171 458 157 458 132 C458 108 444 91 430 74Z" fill="none" stroke="#e62429" stroke-width="4"/>
    <path d="M430 86 L430 176 M414 112 L446 112 M408 136 L452 136 M416 160 L444 160" stroke="#f5f7ff" stroke-width="2" stroke-linecap="round" opacity="0.7"/>
  </g>

  <text x="430" y="220" text-anchor="middle"
        font-family="Impact, 'Arial Black', system-ui, sans-serif"
        font-size="70" font-weight="900"
        fill="url(#name)" letter-spacing="1.5">Ayush Aryan</text>
  <line x1="156" y1="239" x2="704" y2="239" stroke="#f5f7ff" stroke-width="1" opacity="0.35"/>
  <text x="430" y="274" text-anchor="middle"
        font-family="'Courier New', Courier, monospace"
        font-size="19" font-weight="700"
        fill="#f5f7ff">Full-Stack Web Developer | Java DSA</text>
  <text x="430" y="303" text-anchor="middle"
        font-family="'Courier New', Courier, monospace"
        font-size="14"
        fill="#7eb0ff">React - Node.js - Java - MongoDB - Supabase</text>

  <g opacity="0.75">
    <circle cx="278" cy="334" r="3" fill="#e62429"/>
    <line x1="288" y1="334" x2="390" y2="334" stroke="#e62429" stroke-width="2"/>
    <circle cx="430" cy="334" r="5" fill="#f5f7ff"/>
    <line x1="470" y1="334" x2="572" y2="334" stroke="#1e6bff" stroke-width="2"/>
    <circle cx="582" cy="334" r="3" fill="#1e6bff"/>
  </g>
</svg>
