<svg xmlns="http://www.w3.org/2000/svg" width="860" height="380" viewBox="0 0 860 380">

  <!-- Dark background — solid fill, no url() gradient -->
  <rect width="860" height="380" fill="#07070f" rx="10"/>

  <!-- Subtle purple-dark mid layer -->
  <rect x="0" y="100" width="860" height="180" fill="#0d0b18" rx="0" opacity="0.6"/>

  <!-- Gold outer border -->
  <rect x="5" y="5" width="850" height="370" fill="none" stroke="#FFD700" stroke-width="2" rx="9" opacity="0.7"/>

  <!-- Stars -->
  <circle cx="42"  cy="25"  r="1.2" fill="#FFD700" opacity="0.7"/>
  <circle cx="130" cy="55"  r="0.9" fill="#fffde0" opacity="0.6"/>
  <circle cx="200" cy="20"  r="1.4" fill="#FFD700" opacity="0.65"/>
  <circle cx="278" cy="40"  r="0.8" fill="#fffde0" opacity="0.55"/>
  <circle cx="350" cy="16"  r="1.1" fill="#FFD700" opacity="0.6"/>
  <circle cx="430" cy="30"  r="0.7" fill="#fffde0" opacity="0.5"/>
  <circle cx="502" cy="22"  r="1.2" fill="#FFD700" opacity="0.65"/>
  <circle cx="580" cy="50"  r="0.9" fill="#fffde0" opacity="0.55"/>
  <circle cx="650" cy="18"  r="1.1" fill="#FFD700" opacity="0.6"/>
  <circle cx="720" cy="36"  r="0.8" fill="#fffde0" opacity="0.5"/>
  <circle cx="795" cy="22"  r="1.3" fill="#FFD700" opacity="0.65"/>
  <circle cx="82"  cy="80"  r="0.8" fill="#FFD700" opacity="0.5"/>
  <circle cx="162" cy="90"  r="1.0" fill="#fffde0" opacity="0.45"/>
  <circle cx="312" cy="76"  r="0.9" fill="#FFD700" opacity="0.5"/>
  <circle cx="465" cy="70"  r="0.7" fill="#fffde0" opacity="0.45"/>
  <circle cx="540" cy="85"  r="1.0" fill="#FFD700" opacity="0.5"/>
  <circle cx="692" cy="70"  r="1.1" fill="#fffde0" opacity="0.5"/>
  <circle cx="760" cy="88"  r="0.8" fill="#FFD700" opacity="0.45"/>
  <circle cx="820" cy="58"  r="0.9" fill="#fffde0" opacity="0.5"/>
  <circle cx="32"  cy="115" r="0.7" fill="#FFD700" opacity="0.45"/>
  <circle cx="112" cy="128" r="1.0" fill="#fffde0" opacity="0.4"/>
  <circle cx="750" cy="125" r="0.9" fill="#FFD700" opacity="0.45"/>
  <circle cx="820" cy="110" r="0.8" fill="#fffde0" opacity="0.4"/>
  <circle cx="388" cy="90"  r="0.6" fill="#FFD700" opacity="0.45"/>
  <circle cx="252" cy="108" r="0.8" fill="#fffde0" opacity="0.4"/>
  <circle cx="68"  cy="145" r="0.7" fill="#FFD700" opacity="0.4"/>
  <circle cx="784" cy="145" r="0.8" fill="#fffde0" opacity="0.4"/>

  <!-- Bat silhouette (subtle, top center) -->
  <path d="M430,55 C425,50 414,58 409,49 C404,40 417,35 421,39 C424,36 427,29 430,27 C433,29 436,36 439,39 C443,35 456,40 451,49 C446,58 435,50 430,55Z" fill="#FFD700" opacity="0.15"/>

  <!-- Golden glow behind name (radial — using ellipse fill trick) -->
  <ellipse cx="430" cy="160" rx="250" ry="95" fill="#FFD700" opacity="0.04"/>
  <ellipse cx="430" cy="160" rx="180" ry="65" fill="#FFD700" opacity="0.04"/>
  <ellipse cx="430" cy="160" rx="100" ry="35" fill="#FFD700" opacity="0.03"/>

  <!-- Gotham cityscape silhouette -->
  <path d="M0,380 L0,300
    L20,300 L20,275 L35,275 L35,260 L38,252 L41,260 L50,260 L50,285 L70,285
    L70,250 L80,250 L80,238 L90,238 L90,225 L95,218 L100,225 L100,240 L115,240 L115,265 L130,265
    L130,245 L143,245 L143,232 L147,226 L151,232 L160,232 L160,255 L175,255
    L175,235 L183,235 L183,215 L190,215 L190,200 L194,193 L198,200 L198,220 L208,220 L208,248 L225,248
    L225,262 L245,262 L245,242 L253,242 L253,225 L258,218 L263,225 L268,225 L268,210 L274,204 L280,210 L280,248 L295,248
    L295,258 L325,258 L325,245 L338,245 L338,232 L344,225 L350,232 L355,232 L355,252 L375,252
    L375,265 L410,265 L410,248 L420,248 L420,262 L430,262 L430,262 L440,262 L440,248 L450,248 L450,265
    L485,265 L485,252 L505,252 L505,232 L511,225 L517,232 L522,232 L522,245 L535,245 L535,258 L565,258
    L565,248 L571,204 L577,210 L583,210 L583,225 L588,218 L593,225 L598,225 L598,242 L606,242 L606,262 L625,262
    L625,248 L638,248 L638,220 L642,200 L646,193 L650,200 L650,215 L657,215 L657,235 L665,235
    L665,255 L680,255 L680,232 L689,232 L693,226 L697,232 L710,232 L710,245 L723,245 L723,265
    L738,265 L738,240 L750,240 L750,225 L753,218 L758,225 L758,238 L768,238 L768,250 L778,250 L778,285
    L795,285 L795,260 L804,260 L807,252 L810,260 L820,260 L820,275 L835,275 L835,300 L860,300
    L860,380 Z"
    fill="#08080d"/>

  <!-- Window lights in buildings -->
  <rect x="93"  y="228" width="3" height="3" fill="#FFD700" opacity="0.4"/>
  <rect x="193" y="205" width="3" height="3" fill="#FFD700" opacity="0.35"/>
  <rect x="258" y="228" width="3" height="3" fill="#FFD700" opacity="0.4"/>
  <rect x="346" y="235" width="3" height="3" fill="#FFD700" opacity="0.35"/>
  <rect x="514" y="235" width="3" height="3" fill="#FFD700" opacity="0.35"/>
  <rect x="573" y="215" width="3" height="3" fill="#FFD700" opacity="0.4"/>
  <rect x="648" y="205" width="3" height="3" fill="#FFD700" opacity="0.35"/>
  <rect x="755" y="228" width="3" height="3" fill="#FFD700" opacity="0.4"/>

  <!-- Name -->
  <text x="430" y="180" text-anchor="middle"
        font-family="Georgia, 'Times New Roman', serif"
        font-size="74" font-weight="bold"
        fill="#FFD700" letter-spacing="2">Ayush Aryan</text>

  <!-- Horizontal rule below name -->
  <line x1="140" y1="198" x2="720" y2="198" stroke="#FFD700" stroke-width="1.5" opacity="0.55"/>

  <!-- Subtitle line 1 -->
  <text x="430" y="232" text-anchor="middle"
        font-family="Georgia, 'Times New Roman', serif"
        font-size="18" font-weight="bold"
        fill="#FFD700" opacity="0.95">AI Agent Builder · Web Developer · DSA Warrior</text>

  <!-- Subtitle line 2 -->
  <text x="430" y="260" text-anchor="middle"
        font-family="Georgia, 'Times New Roman', serif"
        font-size="14"
        fill="#B8860B" opacity="0.9">CSE @ Vedam School of Technology</text>

  <!-- Diamond divider -->
  <line x1="100" y1="305" x2="148" y2="305" stroke="#FFD700" stroke-width="0.8" opacity="0.3"/>
  <polygon points="155,299 161,305 155,311 149,305" fill="#FFD700" opacity="0.5"/>
  <line x1="161" y1="305" x2="208" y2="305" stroke="#FFD700" stroke-width="0.8" opacity="0.35"/>
  <polygon points="215,299 222,305 215,311 208,305" fill="#FFD700" opacity="0.65"/>
  <line x1="222" y1="305" x2="278" y2="305" stroke="#FFD700" stroke-width="1" opacity="0.45"/>
  <polygon points="285,300 294,305 285,310 276,305" fill="#FFD700" opacity="0.75"/>
  <line x1="294" y1="305" x2="358" y2="305" stroke="#FFD700" stroke-width="1.2" opacity="0.55"/>
  <polygon points="365,299 375,305 365,311 355,305" fill="#FFD700" opacity="0.85"/>
  <line x1="375" y1="305" x2="418" y2="305" stroke="#FFD700" stroke-width="1.2" opacity="0.6"/>
  <!-- Center diamond (largest) -->
  <polygon points="430,294 443,305 430,316 417,305" fill="#FFD700" opacity="1"/>
  <line x1="443" y1="305" x2="485" y2="305" stroke="#FFD700" stroke-width="1.2" opacity="0.6"/>
  <polygon points="495,299 505,305 495,311 485,305" fill="#FFD700" opacity="0.85"/>
  <line x1="505" y1="305" x2="566" y2="305" stroke="#FFD700" stroke-width="1.2" opacity="0.55"/>
  <polygon points="573,300 582,305 573,310 564,305" fill="#FFD700" opacity="0.75"/>
  <line x1="582" y1="305" x2="638" y2="305" stroke="#FFD700" stroke-width="1" opacity="0.45"/>
  <polygon points="645,299 652,305 645,311 638,305" fill="#FFD700" opacity="0.65"/>
  <line x1="652" y1="305" x2="699" y2="305" stroke="#FFD700" stroke-width="0.8" opacity="0.35"/>
  <polygon points="705,299 711,305 705,311 699,305" fill="#FFD700" opacity="0.5"/>
  <line x1="711" y1="305" x2="760" y2="305" stroke="#FFD700" stroke-width="0.8" opacity="0.3"/>
</svg>
